<svg id="Layer_1" data-name="Layer 1" xmlns="http://www.w3.org/2000/svg" viewBox="0 0 693.46 693.46"><defs><style>.cls-1{fill:#1d2c4d;}.cls-2{fill:#fff;}</style></defs><title>button</title><rect class="cls-1" x="26" y="26" width="641.46" height="641.46" rx="127.7"/><path class="cls-2" d="M548.88,61.12c55.94,0,101.7,45.76,101.7,101.7V548.88c0,55.94-45.76,101.7-101.7,101.7H162.82c-55.94,0-101.7-45.76-101.7-101.7V162.82c0-55.94,45.76-101.7,101.7-101.7H548.88m0-52H162.82A152.16,152.16,0,0,0,103,21.28,154.66,154.66,0,0,0,21.28,103,152.16,152.16,0,0,0,9.12,162.82V548.88a153.34,153.34,0,0,0,45.1,108.59A153.62,153.62,0,0,0,103,690.41a152,152,0,0,0,59.82,12.17H548.88a153.85,153.85,0,0,0,153.7-153.7V162.82A152,152,0,0,0,690.41,103,154.69,154.69,0,0,0,608.7,21.28,152.16,152.16,0,0,0,548.88,9.12Z" transform="translate(-9.12 -9.12)"/></svg>